<?xml version="1.0" encoding="UTF-8" standalone="no"?> <svg width="64" height="64" viewBox="0 0 64 64" fill="none" xmlns="http://www.w3.org/2000/svg">
<path d="M60.49 14.792L57.4 6.542C56.8958 5.20961 55.9988 4.06184 54.8276 3.25073C53.6565 2.43962 52.2666 2.00345 50.842 2H13.158C11.7334 2.00345 10.3435 2.43962 9.17238 3.25073C8.00125 4.06184 7.10418 5.20961 6.6 6.542L3.51 14.792C2.50991 17.4546 1.99838 20.2758 2 23.12C2 23.3852 2.10536 23.6396 2.2929 23.8271C2.48043 24.0146 2.73479 24.12 3 24.12C3.26522 24.12 3.51957 24.0146 3.70711 23.8271C3.89465 23.6396 4 23.3852 4 23.12C3.99828 20.5155 4.4668 17.932 5.383 15.494L8.477 7.244C8.83704 6.29292 9.47734 5.47355 10.3132 4.89429C11.149 4.31503 12.1411 4.00319 13.158 4H50.842C51.8589 4.00319 52.851 4.31503 53.6868 4.89429C54.5227 5.47355 55.163 6.29292 55.523 7.244L58.617 15.494C59.4064 17.6154 59.8579 19.8476 59.955 22.109L54.855 23.009L50.917 23.709L46.98 24.403L43.044 25.097L35.167 26.486L27.28 27.87L19.4 29.259L5.143 31.773L4.3 26.69C4.28162 26.5577 4.2369 26.4303 4.16848 26.3156C4.10006 26.2008 4.00934 26.1009 3.90166 26.0218C3.79399 25.9426 3.67155 25.8859 3.54159 25.8549C3.41162 25.8239 3.27675 25.8192 3.14495 25.8412C3.01316 25.8632 2.88711 25.9114 2.77424 25.9829C2.66138 26.0544 2.56399 26.1479 2.48784 26.2576C2.41168 26.3674 2.3583 26.4914 2.33085 26.6221C2.3034 26.7529 2.30243 26.8879 2.328 27.019L7.178 56.151C7.44629 57.7874 8.28855 59.2747 9.55385 60.3465C10.8192 61.4183 12.4248 62.0045 14.083 62H49.917C51.5752 62.0045 53.1809 61.4183 54.4462 60.3465C55.7115 59.2747 56.5537 57.7874 56.822 56.151L58.5 46.105C58.5436 45.8434 58.4815 45.5751 58.3274 45.3593C58.1732 45.1434 57.9396 44.9976 57.678 44.954C57.4164 44.9104 57.1481 44.9725 56.9323 45.1266C56.7164 45.2808 56.5706 45.5144 56.527 45.776L55.752 50.4L51.477 49.646L43.6 48.259L35.721 46.87L27.842 45.481L23.905 44.787L16.026 43.4L6.809 41.772L6.622 40.652L20.191 38.259C20.4522 38.213 20.6845 38.0651 20.8367 37.8478C20.9889 37.6306 21.0485 37.3617 21.0025 37.1005C20.9565 36.8393 20.8086 36.607 20.5913 36.4548C20.3741 36.3026 20.1052 36.243 19.844 36.289L6.294 38.679L5.472 33.746L6.946 33.487L7.119 34.471C7.15916 34.7024 7.27946 34.9122 7.45882 35.0638C7.63819 35.2154 7.86517 35.299 8.1 35.3C8.15866 35.2999 8.2172 35.2949 8.275 35.285C8.53607 35.2389 8.76815 35.091 8.92022 34.8739C9.0723 34.6567 9.13193 34.3881 9.086 34.127L8.912 33.142L10.882 32.795L11.229 34.764C11.2697 34.9955 11.3906 35.2053 11.5705 35.3565C11.7505 35.5078 11.9779 35.5908 12.213 35.591C12.2713 35.5909 12.3295 35.5859 12.387 35.576C12.5164 35.5533 12.64 35.5053 12.7508 35.4348C12.8616 35.3643 12.9575 35.2727 13.0329 35.1652C13.1083 35.0577 13.1617 34.9363 13.1903 34.8081C13.2188 34.6799 13.2217 34.5474 13.199 34.418L12.852 32.448L14.821 32.1L14.995 33.085C15.0358 33.3162 15.1567 33.5256 15.3364 33.6766C15.5161 33.8276 15.7433 33.9106 15.978 33.911C16.0367 33.9109 16.0952 33.9059 16.153 33.896C16.2824 33.8732 16.406 33.8251 16.5168 33.7545C16.6275 33.6839 16.7233 33.5922 16.7986 33.4845C16.8739 33.3769 16.9273 33.2555 16.9557 33.1272C16.9841 32.999 16.9869 32.8664 16.964 32.737L16.791 31.753L18.76 31.406L19.108 33.376C19.1489 33.6073 19.2699 33.8169 19.4498 33.9679C19.6297 34.119 19.8571 34.2018 20.092 34.202C20.1507 34.2018 20.2092 34.1968 20.267 34.187C20.3964 34.1642 20.52 34.1161 20.6308 34.0455C20.7415 33.9749 20.8373 33.8832 20.9126 33.7755C20.9879 33.6679 21.0413 33.5465 21.0697 33.4182C21.0981 33.29 21.1009 33.1574 21.078 33.028L20.73 31.058L22.699 30.711L22.873 31.696C22.9139 31.9273 23.0349 32.1369 23.2148 32.2879C23.3947 32.439 23.6221 32.5218 23.857 32.522C23.9157 32.5219 23.9742 32.5169 24.032 32.507C24.1614 32.4842 24.285 32.4361 24.3958 32.3655C24.5065 32.2949 24.6023 32.2032 24.6776 32.0955C24.7529 31.9879 24.8063 31.8665 24.8347 31.7382C24.8631 31.61 24.8659 31.4774 24.843 31.348L24.669 30.364L26.639 30.017L26.986 31.986C27.0267 32.2175 27.1476 32.4273 27.3275 32.5785C27.5075 32.7298 27.7349 32.8128 27.97 32.813C28.0287 32.8131 28.0873 32.8077 28.145 32.797C28.4061 32.7509 28.6381 32.603 28.7902 32.3859C28.9423 32.1687 29.0019 31.9001 28.956 31.639L28.609 29.669L30.578 29.322L30.752 30.307C30.7929 30.5383 30.9139 30.7479 31.0938 30.8989C31.2737 31.05 31.5011 31.1328 31.736 31.133C31.7947 31.1329 31.8532 31.1279 31.911 31.118C32.0404 31.0952 32.164 31.0471 32.2748 30.9765C32.3855 30.9059 32.4813 30.8142 32.5566 30.7065C32.6319 30.5989 32.6853 30.4775 32.7137 30.3492C32.7421 30.221 32.7449 30.0884 32.722 29.959L32.548 28.975L34.517 28.628L34.865 30.597C34.9059 30.8283 35.0269 31.0379 35.2068 31.1889C35.3867 31.34 35.6141 31.4228 35.849 31.423C35.9073 31.4234 35.9656 31.4184 36.023 31.408C36.2841 31.3619 36.5161 31.214 36.6682 30.9969C36.8203 30.7797 36.8799 30.5111 36.834 30.25L36.487 28.28L38.456 27.933L38.63 28.918C38.6709 29.1493 38.7919 29.3589 38.9718 29.5099C39.1517 29.661 39.3791 29.7438 39.614 29.744C39.6727 29.7439 39.7312 29.7389 39.789 29.729C39.9184 29.7062 40.042 29.6581 40.1528 29.5875C40.2635 29.5169 40.3593 29.4252 40.4346 29.3175C40.5099 29.2099 40.5633 29.0885 40.5917 28.9602C40.6201 28.832 40.6229 28.6994 40.6 28.57L40.426 27.586L42.396 27.238L42.743 29.208C42.7839 29.4393 42.9049 29.6489 43.0848 29.7999C43.2647 29.951 43.4921 30.0338 43.727 30.034C43.7857 30.0339 43.8442 30.0289 43.902 30.019C44.0314 29.9962 44.155 29.9481 44.2658 29.8775C44.3765 29.8069 44.4723 29.7152 44.5476 29.6075C44.6229 29.4999 44.6763 29.3785 44.7047 29.2502C44.7331 29.122 44.7359 28.9894 44.713 28.86L44.366 26.891L46.335 26.544L46.509 27.528C46.5497 27.7595 46.6706 27.9693 46.8505 28.1205C47.0305 28.2718 47.2579 28.3548 47.493 28.355C47.5514 28.3551 47.6096 28.3497 47.667 28.339C47.9281 28.2929 48.1601 28.145 48.3122 27.9279C48.4643 27.7107 48.5239 27.4421 48.478 27.181L48.305 26.196L50.274 25.849L50.622 27.819C50.6629 28.0502 50.7837 28.2596 50.9634 28.4106C51.1431 28.5616 51.3703 28.6446 51.605 28.645C51.6637 28.6449 51.7222 28.6399 51.78 28.63C51.9094 28.6072 52.033 28.5591 52.1438 28.4885C52.2545 28.4179 52.3503 28.3262 52.4256 28.2185C52.5009 28.1109 52.5543 27.9895 52.5827 27.8612C52.6111 27.733 52.6139 27.6004 52.591 27.471L52.247 25.5L54.217 25.153L54.39 26.137C54.4309 26.3683 54.5519 26.5779 54.7318 26.7289C54.9117 26.88 55.1391 26.9628 55.374 26.963C55.4323 26.9635 55.4906 26.9584 55.548 26.948C55.6774 26.9253 55.801 26.8773 55.9118 26.8068C56.0226 26.7363 56.1185 26.6447 56.1939 26.5372C56.2693 26.4297 56.3227 26.3083 56.3513 26.1801C56.3798 26.0519 56.3827 25.9194 56.36 25.79L56.186 24.805L59.958 24.14C59.9234 24.9945 59.8389 25.8463 59.705 26.691L59.263 29.34L23.783 35.6C23.5365 35.6432 23.3151 35.7772 23.1626 35.9757C23.0101 36.1741 22.9376 36.4225 22.9593 36.6718C22.9811 36.9211 23.0955 37.1533 23.28 37.3223C23.4645 37.4914 23.7057 37.5851 23.956 37.585C24.0144 37.585 24.0726 37.5797 24.13 37.569L58.914 31.436L57.182 41.836C57.1411 42.0955 57.204 42.3607 57.3571 42.5742C57.5102 42.7877 57.7411 42.9324 58 42.977C58.0549 42.986 58.1104 42.9907 58.166 42.991C58.4025 42.9907 58.6313 42.9065 58.8116 42.7534C58.992 42.6004 59.1122 42.3883 59.151 42.155L61.674 27.019C62.3602 22.9101 61.9519 18.6929 60.49 14.792V14.792ZM10.753 44.5L10.406 46.469C10.3831 46.5984 10.3859 46.731 10.4143 46.8592C10.4427 46.9875 10.4961 47.1089 10.5714 47.2165C10.6467 47.3242 10.7425 47.4159 10.8533 47.4865C10.964 47.5571 11.0876 47.6052 11.217 47.628C11.2748 47.6379 11.3334 47.6429 11.392 47.643C11.6267 47.6426 11.8539 47.5596 12.0336 47.4086C12.2133 47.2576 12.3342 47.0482 12.375 46.817L12.723 44.847L14.692 45.194L14.519 46.179C14.4731 46.4401 14.5327 46.7087 14.6848 46.9259C14.8369 47.143 15.0689 47.2909 15.33 47.337C15.3874 47.3477 15.4456 47.353 15.504 47.353C15.7391 47.3528 15.9665 47.2698 16.1465 47.1185C16.3264 46.9673 16.4473 46.7575 16.488 46.526L16.662 45.542L18.631 45.889L18.284 47.858C18.2611 47.9874 18.2639 48.12 18.2923 48.2482C18.3207 48.3765 18.3741 48.4979 18.4494 48.6055C18.5247 48.7132 18.6205 48.8049 18.7313 48.8755C18.842 48.9461 18.9656 48.9942 19.095 49.017C19.1528 49.0269 19.2114 49.0319 19.27 49.032C19.5049 49.0318 19.7323 48.949 19.9122 48.7979C20.0921 48.6469 20.2131 48.4373 20.254 48.206L20.601 46.236L22.571 46.583L22.397 47.568C22.3741 47.6974 22.3769 47.83 22.4053 47.9582C22.4337 48.0865 22.4871 48.2079 22.5624 48.3155C22.6377 48.4232 22.7335 48.5149 22.8443 48.5855C22.955 48.6561 23.0786 48.7042 23.208 48.727C23.2658 48.7369 23.3244 48.7419 23.383 48.742C23.6179 48.7418 23.8453 48.659 24.0252 48.5079C24.2051 48.3569 24.3261 48.1473 24.367 47.916L24.541 46.931L26.51 47.278L26.163 49.248C26.1171 49.5091 26.1767 49.7777 26.3288 49.9949C26.4809 50.212 26.7129 50.3599 26.974 50.406C27.0314 50.4164 27.0897 50.4214 27.148 50.421C27.3829 50.4208 27.6103 50.338 27.7902 50.1869C27.9701 50.0359 28.0911 49.8263 28.132 49.595L28.48 47.625L30.449 47.973L30.275 48.957C30.2521 49.0864 30.2549 49.219 30.2833 49.3472C30.3117 49.4755 30.3651 49.5969 30.4404 49.7045C30.5157 49.8122 30.6115 49.9039 30.7223 49.9745C30.833 50.0451 30.9566 50.0932 31.086 50.116C31.1438 50.1259 31.2024 50.1309 31.261 50.131C31.4959 50.1308 31.7233 50.048 31.9032 49.8969C32.0831 49.7459 32.2041 49.5363 32.245 49.305L32.419 48.32L34.388 48.667L34.041 50.637C33.9951 50.8981 34.0547 51.1667 34.2068 51.3839C34.3589 51.601 34.5909 51.7489 34.852 51.795C34.9097 51.8057 34.9683 51.8111 35.027 51.811C35.2621 51.8108 35.4895 51.7278 35.6695 51.5765C35.8494 51.4253 35.9703 51.2155 36.011 50.984L36.358 49.015L38.328 49.362L38.154 50.346C38.1311 50.4754 38.1339 50.608 38.1623 50.7362C38.1907 50.8645 38.2441 50.9859 38.3194 51.0935C38.3947 51.2012 38.4905 51.2929 38.6013 51.3635C38.712 51.4341 38.8356 51.4822 38.965 51.505C39.0228 51.5149 39.0814 51.5199 39.14 51.52C39.3749 51.5198 39.6023 51.437 39.7822 51.2859C39.9621 51.1349 40.0831 50.9253 40.124 50.694L40.298 49.709L42.267 50.056L41.919 52.026C41.8961 52.1554 41.8989 52.288 41.9273 52.4162C41.9557 52.5445 42.0091 52.6659 42.0844 52.7735C42.1597 52.8812 42.2555 52.9729 42.3663 53.0435C42.477 53.1141 42.6006 53.1622 42.73 53.185C42.7878 53.1948 42.8464 53.1998 42.905 53.2C43.1399 53.1998 43.3673 53.117 43.5472 52.9659C43.7271 52.8149 43.8481 52.6053 43.889 52.374L44.237 50.404L46.206 50.751L46.033 51.735C46.0101 51.8644 46.0129 51.997 46.0413 52.1252C46.0697 52.2535 46.1231 52.3749 46.1984 52.4825C46.2737 52.5902 46.3695 52.6819 46.4803 52.7525C46.591 52.8231 46.7146 52.8712 46.844 52.894C46.9018 52.9039 46.9604 52.9089 47.019 52.909C47.2535 52.9081 47.4803 52.8247 47.6596 52.6736C47.8389 52.5224 47.9594 52.313 48 52.082L48.174 51.097L50.143 51.445L49.796 53.415C49.7733 53.5444 49.7762 53.6769 49.8048 53.8051C49.8333 53.9333 49.8867 54.0547 49.9621 54.1622C50.0375 54.2697 50.1334 54.3613 50.2442 54.4318C50.355 54.5023 50.4786 54.5503 50.608 54.573C50.6655 54.5829 50.7237 54.5879 50.782 54.588C51.0171 54.5878 51.2445 54.5048 51.4245 54.3535C51.6044 54.2023 51.7253 53.9925 51.766 53.761L52.113 51.792L55.422 52.375L54.847 55.822C54.6557 56.9906 54.0545 58.0529 53.1511 58.8185C52.2477 59.5841 51.1012 60.003 49.917 60H14.083C12.8985 60.0034 11.7515 59.5848 10.8477 58.8192C9.94387 58.0535 9.34236 56.991 9.151 55.822L8.379 51.188L47.879 58.154C47.9368 58.1639 47.9954 58.1689 48.054 58.169C48.3043 58.1691 48.5455 58.0754 48.73 57.9063C48.9145 57.7373 49.0289 57.5051 49.0507 57.2558C49.0724 57.0065 48.9999 56.7581 48.8474 56.5597C48.6949 56.3612 48.4735 56.2272 48.227 56.184L8.03 49.1L7.158 43.87L10.753 44.5Z" fill="black"/>
<path d="M20.316 22.949C27.9028 20.437 36.0972 20.437 43.684 22.949C43.786 22.9825 43.8926 22.9998 44 23C44.1759 23.0003 44.3487 22.9543 44.5011 22.8665C44.6535 22.7787 44.7801 22.6523 44.868 22.5L48.868 15.5C48.9376 15.3782 48.9808 15.2432 48.9947 15.1036C49.0087 14.964 48.9932 14.8231 48.9491 14.6899C48.9051 14.5568 48.8335 14.4344 48.7391 14.3307C48.6447 14.227 48.5295 14.1443 48.401 14.088L47.611 13.742C42.6867 11.5946 37.3722 10.4862 32 10.4862C26.6278 10.4862 21.3134 11.5946 16.389 13.742L15.599 14.088C15.4705 14.1443 15.3554 14.227 15.2609 14.3307C15.1665 14.4344 15.0949 14.5568 15.0509 14.6899C15.0068 14.8231 14.9913 14.964 15.0053 15.1036C15.0193 15.2432 15.0624 15.3782 15.132 15.5L19.132 22.5C19.2472 22.7 19.4281 22.8539 19.6439 22.9358C19.8597 23.0176 20.0972 23.0223 20.316 22.949V22.949ZM46.579 15.471L43.534 20.8C40.3377 19.8224 37.0288 19.2605 33.689 19.128L35.857 15.515C35.9879 15.288 36.0245 15.0186 35.9588 14.7649C35.8931 14.5111 35.7304 14.2933 35.5058 14.1583C35.2811 14.0233 35.0125 13.9819 34.7576 14.043C34.5027 14.1041 34.282 14.2628 34.143 14.485L31.381 19.085C27.6797 19.1358 24.0045 19.7132 20.466 20.8L17.421 15.471C22.0285 13.499 26.9882 12.4822 32 12.4822C37.0118 12.4822 41.9715 13.499 46.579 15.471V15.471Z" fill="black"/>
<path d="M31 40V43C31 43.2652 31.1054 43.5196 31.2929 43.7071C31.4804 43.8946 31.7348 44 32 44C32.2652 44 32.5196 43.8946 32.7071 43.7071C32.8946 43.5196 33 43.2652 33 43V40C33 39.7348 32.8946 39.4804 32.7071 39.2929C32.5196 39.1054 32.2652 39 32 39C31.7348 39 31.4804 39.1054 31.2929 39.2929C31.1054 39.4804 31 39.7348 31 40Z" fill="black"/>
</svg>
